<?xml version="1.0" encoding="utf-8"?>
<!-- Generator: Adobe Illustrator 16.0.4, SVG Export Plug-In . SVG Version: 6.00 Build 0)  -->
<!DOCTYPE svg PUBLIC "-//W3C//DTD SVG 1.1//EN" "http://www.w3.org/Graphics/SVG/1.1/DTD/svg11.dtd">
<svg version="1.1" id="Layer_1" xmlns="http://www.w3.org/2000/svg" xmlns:xlink="http://www.w3.org/1999/xlink" x="0px" y="0px"
	 width="220.026px" height="50px" viewBox="5.604 0 220.026 50" enable-background="new 5.604 0 220.026 50" xml:space="preserve">
<g>
	<path fill-rule="evenodd" clip-rule="evenodd" d="M172.171,21.688c0,3.335,0.052,6.671-0.04,10.005
		c-0.02,0.658-0.413,1.543-0.927,1.904c-1.169,0.82-2.711-0.092-2.72-1.533c-0.028-5.531-0.009-11.062-0.012-16.593
		c0-0.905,0.325-1.617,1.246-1.87c0.986-0.272,1.739,0.124,2.321,0.948c2.395,3.396,4.804,6.784,7.213,10.173
		c0.368,0.519,0.75,1.026,1.317,1.799c0.055-0.637,0.108-0.984,0.111-1.332c0.012-3.173,0.003-6.345,0.022-9.518
		c0.009-1.474,0.576-2.133,1.782-2.142c1.243-0.009,1.894,0.729,1.894,2.201c0.006,5.316-0.009,10.632,0.011,15.949
		c0.006,0.939-0.177,1.748-1.14,2.072c-1.019,0.34-1.837-0.051-2.464-0.9c-2.392-3.24-4.79-6.477-7.185-9.714
		c-0.38-0.509-0.759-1.015-1.138-1.522C172.368,21.639,172.271,21.664,172.171,21.688z"/>
	<path fill-rule="evenodd" clip-rule="evenodd" d="M192.643,16.869c-0.031,0.412-0.065,0.661-0.065,0.91
		c-0.006,1.282-0.003,2.564-0.003,4.064c1.628,0,3.193-0.001,4.756,0c1.873,0.001,2.697,0.49,2.731,1.619
		c0.04,1.189-0.771,1.686-2.746,1.686c-1.531,0.002-3.062,0.002-4.664,0.002c0,1.842,0,3.536,0,5.395c0.479,0,0.935,0,1.391,0
		c2.483,0.002,4.97-0.016,7.453,0.016c0.981,0.014,1.634,0.506,1.662,1.562c0.029,1.014-0.459,1.695-1.496,1.705
		c-3.727,0.033-7.456,0.043-11.18-0.01c-1.055-0.014-1.631-0.734-1.634-1.781c-0.015-5.525-0.018-11.052,0.009-16.579
		c0.005-1.319,0.581-1.904,1.887-1.917c3.553-0.036,7.108-0.021,10.667-0.013c1.049,0.001,1.716,0.475,1.75,1.6
		c0.031,1.081-0.547,1.697-1.782,1.722c-2.312,0.048-4.627,0.017-6.939,0.019C193.886,16.869,193.335,16.869,192.643,16.869z"/>
	<path fill-rule="evenodd" clip-rule="evenodd" d="M149.291,33.836c-2.05,0.051-2.8-1.127-2.142-2.736
		c0.97-2.375,2.008-4.723,3.014-7.084c1.238-2.913,2.473-5.827,3.707-8.741c0.405-0.957,0.943-1.726,2.133-1.745
		c1.218-0.02,1.856,0.678,2.289,1.708c2.188,5.162,4.392,10.315,6.575,15.477c0.618,1.461,0.413,2.387-0.593,2.902
		c-1.024,0.525-2.093,0.227-2.652-0.764c-0.147-0.258-0.236-0.549-0.348-0.826c-1.098-2.762-1.095-2.764-4.003-2.762
		c-1.457,0-2.917,0.047-4.371-0.016c-0.826-0.035-1.243,0.262-1.479,1.041c-0.248,0.814-0.53,1.648-0.967,2.371
		C150.118,33.217,149.519,33.611,149.291,33.836z M158.957,26.148c-0.976-2.467-1.908-4.818-2.945-7.441
		c-1.047,2.656-1.968,5.001-2.929,7.441C155.162,26.148,156.98,26.148,158.957,26.148z"/>
	<path fill-rule="evenodd" clip-rule="evenodd" d="M117.118,27.73c0,1.336,0.012,2.613-0.003,3.889
		c-0.019,1.488-0.659,2.234-1.873,2.23c-1.228-0.008-1.859-0.719-1.865-2.248c-0.018-5.307-0.021-10.615,0.005-15.922
		c0.007-1.575,0.621-2.148,2.206-2.155c2.054-0.009,4.11-0.047,6.161,0.056c3.777,0.189,6.435,2.75,6.592,6.232
		c0.196,4.334-1.812,7.013-5.885,7.623C120.776,27.684,119.052,27.633,117.118,27.73z M117.207,16.881c0,2.559,0,4.935,0,7.309
		c1.533,0,2.993,0.148,4.413-0.034c2.09-0.268,2.988-1.628,2.897-3.969c-0.074-1.892-1.286-3.171-3.251-3.292
		C119.949,16.815,118.622,16.881,117.207,16.881z"/>
	<path fill-rule="evenodd" clip-rule="evenodd" d="M15.189,24.124c-0.448,4.974,4.031,8.613,8.92,7.308
		c1.205-0.322,2.312-1.061,3.416-1.689c0.681-0.387,1.327-1.012,2.021-0.189c0.674,0.797,0.247,1.486-0.43,2.094
		c-2.843,2.551-7.998,3.262-11.477,1.57c-3.417-1.664-5.559-5.607-5.261-9.696c0.358-4.935,2.991-8.42,7.209-9.544
		c5.297-1.412,10.526,2.095,11.055,7.415c0.213,2.14-0.299,2.729-2.397,2.73c-3.898,0.004-7.796,0.001-11.695,0.003
		C16.092,24.124,15.633,24.124,15.189,24.124z M15.202,22.279c4.303,0,8.518,0,12.725,0c0.284-3.096-2.116-5.725-5.5-6.11
		C18.925,15.77,15.771,18.384,15.202,22.279z"/>
	<path fill-rule="evenodd" clip-rule="evenodd" d="M211.484,16.869c-1.552,0-2.914,0.012-4.277-0.003
		c-1.634-0.019-2.35-0.561-2.332-1.729c0.017-1.134,0.664-1.612,2.27-1.616c4.111-0.009,8.22-0.008,12.331,0
		c1.68,0.003,2.409,0.511,2.415,1.634c0.006,1.155-0.789,1.702-2.5,1.714c-1.24,0.008-2.48,0.012-3.724,0.023
		c-0.077,0-0.157,0.045-0.411,0.123c0,0.4,0,0.854,0,1.308c0,4.409,0.009,8.818-0.006,13.228c-0.002,1.594-0.772,2.414-2.075,2.293
		c-1.123-0.107-1.683-0.844-1.688-2.301c-0.009-4.322-0.003-8.647-0.003-12.97C211.484,18.064,211.484,17.556,211.484,16.869z"/>
	<path fill-rule="evenodd" clip-rule="evenodd" d="M35.673,21.417c0-1.884,0.017-3.768-0.007-5.652
		c-0.012-0.944,0.278-1.675,1.321-1.65c1.029,0.024,1.284,0.754,1.275,1.699c-0.03,3.254-0.025,6.508,0.001,9.764
		c0.006,0.809,0.06,1.635,0.244,2.418c0.576,2.445,2.542,3.828,5.137,3.699c2.562-0.127,4.518-1.736,4.658-4.248
		c0.194-3.5,0.111-7.016,0.145-10.525c0.004-0.428,0-0.856-0.002-1.284c-0.004-0.905,0.382-1.534,1.337-1.524
		c0.928,0.009,1.347,0.585,1.34,1.519c-0.017,2.269,0.02,4.539-0.014,6.808c-0.028,1.922,0.068,3.874-0.23,5.759
		c-0.632,3.996-3.693,6.127-8.14,5.914c-3.945-0.188-6.722-2.766-6.991-6.662c-0.139-2.002-0.024-4.021-0.024-6.033
		C35.706,21.418,35.689,21.417,35.673,21.417z"/>
	<path fill-rule="evenodd" clip-rule="evenodd" d="M135.502,30.545c2.395,0,4.613,0,6.834,0c0.428,0,0.858-0.016,1.283,0.02
		c0.998,0.086,1.603,0.645,1.597,1.648c-0.006,1.014-0.639,1.604-1.628,1.613c-3.382,0.035-6.766,0.049-10.145-0.004
		c-1.192-0.018-1.708-0.775-1.711-2.248c-0.009-4.75-0.003-9.502-0.003-14.254c0-0.514-0.009-1.028,0-1.541
		c0.031-1.498,0.647-2.236,1.87-2.246c1.227-0.011,1.891,0.735,1.896,2.212c0.012,4.409,0.006,8.817,0.006,13.228
		C135.502,29.438,135.502,29.902,135.502,30.545z"/>
	<path fill-rule="evenodd" clip-rule="evenodd" d="M90.565,30.205c-3.033-0.025-5.462-2.473-5.447-5.49
		c0.016-3.059,2.532-5.517,5.606-5.475c2.973,0.041,5.405,2.562,5.375,5.571C96.067,27.816,93.591,30.23,90.565,30.205z"/>
	<path fill-rule="evenodd" clip-rule="evenodd" d="M91.59,8.635c7.707,0.551,13.436,5.648,14.984,13.452
		c0.098,0.489,0.408,0.991,0.751,1.365c0.735,0.802,0.819,1.622,0.122,2.405c-0.662,0.742-1.517,0.752-2.308,0.158
		c-0.734-0.549-0.716-1.578-0.198-2.431c0.291-0.479,0.523-1.157,0.429-1.682c-1.324-7.385-8.322-12.762-15.807-12.205
		C81.996,10.26,75.875,16.5,75.563,23.971c-0.321,7.699,5.14,14.449,12.625,15.605c0.592,0.09,1.198,0.111,1.781,0.242
		c0.224,0.049,0.404,0.307,0.604,0.469c-0.226,0.182-0.461,0.533-0.677,0.521c-0.979-0.051-1.972-0.119-2.926-0.33
		c-7.945-1.766-13.093-9.053-12.411-17.522C75.165,15.418,81.72,9.121,89.474,8.64C90.11,8.601,90.75,8.635,91.59,8.635z"/>
	<path fill-rule="evenodd" clip-rule="evenodd" d="M90.528,45.355c0.176,0.65,0.067,0.969-0.784,0.947
		C77.797,46,68.018,35.09,69.105,23.242c0.986-10.758,8.319-18.454,18.99-19.972c0.4-0.057,0.804-0.372,1.121-0.66
		c0.781-0.709,1.575-0.85,2.41-0.16c0.748,0.618,0.814,1.707,0.116,2.393c-0.763,0.75-1.573,0.623-2.438,0.068
		c-0.406-0.26-0.97-0.481-1.428-0.426c-9.63,1.169-17.356,9.504-17.719,19.067c-0.388,10.238,6.355,19.136,16.055,21.148
		C87.59,44.986,88.997,45.129,90.528,45.355z"/>
	<path fill-rule="evenodd" clip-rule="evenodd" d="M90.493,35.592c-4.648,0.141-8.967-3.127-10.359-7.783
		c-1.401-4.681,0.574-9.833,4.747-12.383c4.502-2.752,10.293-1.929,13.831,1.964c3.503,3.857,3.772,9.612,0.702,13.868
		c-0.365,0.506-0.536,1.195-0.659,1.826c-0.195,1.006-0.763,1.547-1.749,1.516c-0.933-0.031-1.518-0.607-1.581-1.543
		c-0.066-0.996,0.446-1.783,1.452-1.73c1.022,0.053,1.449-0.486,1.913-1.174c2.209-3.281,2.169-7.74-0.111-11.004
		c-2.302-3.294-6.437-4.899-10.279-3.99c-3.902,0.924-6.915,4.182-7.476,8.087c-0.808,5.622,3.027,10.591,8.706,11.237
		C90.33,34.562,90.843,34.631,90.493,35.592z"/>
	<path fill-rule="evenodd" clip-rule="evenodd" d="M59.562,17.402c1.56-2.188,3.45-3.556,6.106-3.679
		c0.339-0.016,0.761-0.104,1.003,0.056c0.403,0.268,0.992,0.741,0.956,1.068c-0.049,0.449-0.547,0.927-0.97,1.228
		c-0.266,0.189-0.75,0.055-1.131,0.102c-3.608,0.438-5.792,3.036-5.863,7.069c-0.05,2.867-0.025,5.736-0.002,8.607
		c0.008,0.984-0.071,1.877-1.344,1.861c-1.285-0.018-1.301-0.959-1.299-1.914c0.01-5.266,0.012-10.533-0.003-15.8
		c-0.003-0.97,0.048-1.91,1.314-1.889c1.299,0.021,1.253,1.028,1.233,1.959C59.555,16.515,59.562,16.958,59.562,17.402z"/>
</g>
</svg>
