<?xml version="1.0" encoding="utf-8"?>
<!-- Generator: Adobe Illustrator 16.0.4, SVG Export Plug-In . SVG Version: 6.00 Build 0)  -->
<svg version="1.2" baseProfile="tiny" id="Layer_1" xmlns="http://www.w3.org/2000/svg" xmlns:xlink="http://www.w3.org/1999/xlink"
	 x="0px" y="0px" width="90px" height="50px" viewBox="-375.5 322.5 90 50" xml:space="preserve">
<g>
	<path fill="#024970" d="M-372.714,333.686c0.082,0.068,0.076,0.183,0.102,0.283c0.584,2.295,1.952,4.036,3.83,5.416
		c1.594,1.172,3.37,2.008,5.176,2.787c1.916,0.827,3.872,1.561,5.734,2.508c1.42,0.723,2.764,1.555,3.855,2.74
		c1.419,1.541,1.975,3.38,1.89,5.441c-0.045,1.103-0.259,2.162-0.789,3.14c-0.786,1.446-2.039,2.326-3.548,2.882
		c-1.257,0.463-2.566,0.676-3.897,0.749c-2.108,0.117-4.22,0.037-6.329,0.05c-0.24,0.002-0.306,0.057-0.304,0.303
		c0.01,2.466,0.003,4.931,0.01,7.396c0.001,0.196-0.052,0.288-0.239,0.367c-1.709,0.726-3.413,1.463-5.116,2.203
		c-0.202,0.088-0.28,0.1-0.279-0.173c0.007-5.062,0.007-10.127,0-15.19c0-0.229,0.073-0.271,0.285-0.271
		c3.689,0.006,7.379,0.004,11.068,0.006c0.448,0,0.883-0.066,1.301-0.227c1.19-0.455,1.841-1.664,1.62-2.99
		c-0.181-1.09-0.725-1.903-1.713-2.444c-1.63-0.892-3.314-1.681-4.927-2.603c-1.497-0.856-2.918-1.817-4.14-3.047
		c-1.913-1.926-3.021-4.248-3.413-6.926C-372.655,335.286-372.702,334.482-372.714,333.686z"/>
	<path fill="#82B641" d="M-348.926,352.044c-0.099-0.041-0.077-0.125-0.094-0.188c-0.71-2.694-2.243-4.822-4.454-6.487
		c-1.711-1.289-3.621-2.216-5.564-3.083c-1.786-0.797-3.607-1.518-5.327-2.458c-1.291-0.706-2.501-1.519-3.433-2.685
		c-1.149-1.439-1.554-3.102-1.407-4.908c0.21-2.574,1.727-4.121,4.035-5.006c1.606-0.615,3.29-0.836,5-0.865
		c3.592-0.057,7.184-0.01,10.774-0.023c0.329-0.001,0.331,0.001,0.17,0.305c-0.853,1.611-1.71,3.222-2.557,4.836
		c-0.088,0.168-0.187,0.217-0.367,0.215c-2.555-0.006-5.108-0.004-7.663-0.004c-0.489,0-0.972,0.043-1.441,0.195
		c-1.268,0.414-1.789,1.534-1.674,2.699c0.124,1.251,0.73,2.207,1.779,2.908c1.257,0.84,2.606,1.503,3.958,2.165
		c1.663,0.813,3.331,1.618,4.824,2.731c1.511,1.127,2.698,2.502,3.287,4.33c0.415,1.286,0.486,2.604,0.359,3.939
		C-348.764,351.125-348.826,351.585-348.926,352.044z"/>
	<path fill="#6B6D6F" d="M-323.708,360.794c0-1.604,0.006-3.211-0.006-4.815c-0.002-0.24,0.067-0.289,0.296-0.287
		c2.146,0.009,4.293-0.002,6.439,0.006c2.604,0.009,4.49,1.238,5.75,3.463c0.803,1.417,1.008,2.969,0.877,4.576
		c-0.08,1.006-0.281,1.979-0.707,2.898c-0.694,1.5-1.828,2.539-3.373,3.098c-1.953,0.707-3.961,0.703-5.979,0.334
		c-0.518-0.096-0.513-0.125-0.275-0.598c0.233-0.467,0.477-0.93,0.701-1.4c0.075-0.154,0.156-0.19,0.327-0.162
		c0.954,0.152,1.911,0.294,2.882,0.152c1.691-0.246,2.838-1.192,3.424-2.779c0.674-1.824,0.623-3.62-0.443-5.303
		c-0.748-1.178-1.873-1.791-3.24-1.931c-1.29-0.131-2.588-0.03-3.882-0.055c-0.124-0.003-0.185,0.038-0.174,0.167
		c0.005,0.062,0.001,0.123,0.001,0.188c0,2.323-0.021,4.647,0.006,6.971c0.031,2.676-1.741,4.631-4.396,5.064
		c-1.521,0.249-3.013,0.133-4.396-0.602c-1.545-0.816-2.376-2.129-2.531-3.866c-0.022-0.246-0.026-0.495-0.026-0.743
		c-0.001-3.052,0.004-6.104-0.008-9.152c-0.002-0.281,0.079-0.336,0.339-0.328c0.62,0.02,1.241,0.018,1.862,0
		c0.229-0.006,0.293,0.049,0.292,0.287c-0.01,3.062-0.006,6.121-0.007,9.182c0,0.328,0.026,0.654,0.095,0.977
		c0.232,1.114,0.911,1.797,2.014,2.045c0.684,0.152,1.375,0.151,2.058-0.011c1.231-0.293,1.991-1.187,2.058-2.452
		c0.039-0.742,0.021-1.488,0.024-2.234C-323.705,362.586-323.708,361.691-323.708,360.794z"/>
	<path fill="#6B6D6F" d="M-310.96,347.1c1.739,1.812,3.47,3.61,5.194,5.405c-0.03,0.076-0.082,0.058-0.121,0.058
		c-0.922,0.002-1.844,0-2.768,0.004c-0.125,0-0.216-0.035-0.303-0.127c-1.639-1.719-3.277-3.438-4.923-5.151
		c-0.103-0.106-0.111-0.196-0.063-0.329c0.205-0.584,0.403-1.17,0.594-1.76c0.053-0.166,0.141-0.208,0.307-0.203
		c0.844,0.021,1.686-0.016,2.51-0.21c0.604-0.144,1.178-0.361,1.592-0.847c0.984-1.15,0.508-2.987-0.906-3.51
		c-0.826-0.305-1.692-0.375-2.562-0.385c-0.771-0.008-1.542-0.011-2.312,0.042c-0.227,0.017-0.291,0.063-0.291,0.3
		c0.009,3.814,0.007,7.629,0.004,11.441c0,0.219,0.099,0.501-0.045,0.641c-0.143,0.137-0.422,0.038-0.643,0.041
		c-0.515,0.006-1.029-0.006-1.543,0.006c-0.18,0.004-0.22-0.059-0.22-0.228c0.004-4.728,0.005-9.454-0.001-14.183
		c0-0.189,0.061-0.233,0.24-0.234c1.623-0.006,3.244-0.041,4.867-0.03c1.17,0.009,2.336,0.091,3.467,0.44
		c1.74,0.541,2.674,1.703,2.837,3.513c0.062,0.677,0.047,1.347-0.083,2.011c-0.254,1.293-1.047,2.135-2.241,2.631
		c-0.758,0.314-1.554,0.479-2.362,0.586C-310.807,347.031-310.882,347.016-310.96,347.1z"/>
	<path fill="#6B6D6F" d="M-343.589,345.212c0-2.351,0.004-4.7-0.006-7.052c-0.001-0.238,0.064-0.29,0.296-0.291
		c1.285-0.006,2.57-0.047,3.855-0.042c1.453,0.003,2.91,0.012,4.323,0.423c1.105,0.322,2.021,0.9,2.535,1.982
		c0.267,0.56,0.384,1.158,0.425,1.771c0.086,1.272-0.152,2.457-1.011,3.451c-0.712,0.825-1.65,1.269-2.689,1.508
		c-1.346,0.312-2.704,0.313-4.066,0.115c-0.112-0.017-0.161-0.04-0.118-0.164c0.204-0.595,0.407-1.19,0.6-1.788
		c0.042-0.13,0.122-0.127,0.223-0.127c0.487,0.001,0.974,0.039,1.462,0.009c0.704-0.042,1.393-0.146,2.023-0.487
		c0.93-0.502,1.226-1.326,1.148-2.324c-0.07-0.907-0.577-1.477-1.414-1.776c-0.812-0.292-1.658-0.364-2.511-0.375
		c-0.779-0.009-1.56-0.008-2.34,0.04c-0.256,0.016-0.291,0.104-0.291,0.326c0.006,3.912,0.005,7.822,0.005,11.734
		c0,0.062-0.006,0.125,0.001,0.187c0.016,0.142-0.047,0.183-0.184,0.183c-0.691-0.006-1.384-0.007-2.075,0
		c-0.153,0.002-0.21-0.05-0.192-0.197c0.008-0.062,0.001-0.125,0.001-0.188C-343.589,349.824-343.589,347.518-343.589,345.212z"/>
	<path fill="#6B6D6F" d="M-294.85,352.512c-0.948,0-1.896-0.007-2.846,0.004c-0.191,0.002-0.265-0.039-0.26-0.246
		c0.016-0.604,0.014-1.207,0-1.811c-0.004-0.199,0.053-0.251,0.252-0.25c1.703,0.005,3.405,0.003,5.107-0.007
		c0.347-0.002,0.689-0.052,1.017-0.177c0.804-0.305,1.119-1.334,0.649-2.114c-0.229-0.384-0.572-0.647-0.941-0.882
		c-0.803-0.51-1.686-0.864-2.531-1.287c-0.897-0.448-1.783-0.92-2.478-1.668c-1.034-1.114-1.208-2.418-0.741-3.811
		c0.457-1.367,1.499-2.076,2.875-2.347c0.385-0.076,0.771-0.099,1.163-0.099c1.552,0.004,3.104,0.007,4.656-0.004
		c0.225,0,0.28,0.063,0.274,0.281c-0.016,0.594-0.017,1.188,0,1.782c0.006,0.22-0.07,0.261-0.271,0.259
		c-1.649-0.007-3.3-0.005-4.948-0.002c-0.168,0-0.34,0.002-0.504,0.034c-0.966,0.185-1.383,1.31-0.781,2.097
		c0.241,0.315,0.562,0.539,0.897,0.738c0.854,0.51,1.778,0.874,2.659,1.33c0.926,0.479,1.793,1.023,2.492,1.824
		c1.486,1.699,1.062,5.598-2.215,6.242c-0.57,0.113-1.145,0.111-1.72,0.111C-293.643,352.512-294.246,352.512-294.85,352.512z"/>
	<path fill="#6B6D6F" d="M-340.2,370.393c-1.151,0-2.101-0.006-3.05,0.006c-0.219,0.004-0.265-0.068-0.261-0.271
		c0.012-0.585,0.015-1.171-0.001-1.756c-0.006-0.22,0.053-0.281,0.275-0.28c1.694,0.008,3.389,0.006,5.082-0.007
		c0.408-0.003,0.814-0.058,1.188-0.247c0.733-0.374,0.935-1.449,0.407-2.17c-0.252-0.343-0.587-0.59-0.943-0.809
		c-0.733-0.451-1.526-0.784-2.298-1.162c-0.829-0.405-1.643-0.834-2.338-1.456c-1.144-1.022-1.484-2.294-1.13-3.759
		c0.345-1.422,1.298-2.252,2.684-2.621c0.421-0.111,0.852-0.158,1.288-0.158c1.605,0.003,3.211,0.006,4.816-0.004
		c0.221-0.002,0.285,0.057,0.28,0.277c-0.016,0.594-0.017,1.188,0,1.783c0.006,0.219-0.07,0.262-0.271,0.26
		c-1.658-0.006-3.316-0.004-4.976-0.002c-0.168,0-0.339,0.006-0.502,0.039c-0.494,0.1-0.824,0.393-0.962,0.883
		c-0.162,0.58-0.006,1.067,0.439,1.465c0.529,0.473,1.166,0.77,1.796,1.072c0.957,0.461,1.934,0.885,2.813,1.489
		c0.773,0.532,1.426,1.167,1.778,2.062c0.945,2.4-0.561,4.981-3.103,5.308C-338.255,370.471-339.331,370.352-340.2,370.393z"/>
	<path fill="#6B6D6F" d="M-300.716,345.188c0,2.367-0.003,4.734,0.005,7.102c0.001,0.22-0.057,0.285-0.277,0.281
		c-0.746-0.016-1.49-0.014-2.234-0.002c-0.191,0.004-0.232-0.057-0.232-0.239c0.005-4.778,0.005-9.558,0-14.337
		c0-0.189,0.035-0.262,0.244-0.258c0.745,0.014,1.49,0.013,2.234,0c0.213-0.004,0.267,0.062,0.266,0.27
		C-300.719,340.398-300.716,342.792-300.716,345.188z"/>
	<path fill="#6C6E6F" d="M-331.721,331.914c0-1.782,0.005-3.547-0.006-5.312c-0.001-0.233,0.055-0.312,0.292-0.289
		c0.237,0.021,0.479,0.019,0.717,0c0.209-0.016,0.269,0.051,0.267,0.263c-0.009,1.392-0.005,2.784-0.005,4.176
		c0,0.903-0.008,1.81,0.006,2.713c0.004,0.214-0.073,0.283-0.265,0.282c-0.053,0-0.106,0.005-0.159,0.013
		c-0.897,0.142-1.472-0.216-1.899-1.032c-0.801-1.529-1.689-3.012-2.543-4.513c-0.042-0.075-0.089-0.146-0.182-0.214
		c0,0.091,0,0.184,0,0.273c0,1.721-0.005,3.44,0.005,5.162c0.001,0.224-0.061,0.293-0.281,0.276c-0.247-0.019-0.497-0.017-0.744,0
		c-0.195,0.013-0.26-0.041-0.255-0.247c0.016-0.559,0.006-1.117,0.006-1.676c0-1.738,0.002-3.477-0.004-5.214
		c-0.001-0.179,0.022-0.263,0.231-0.28c0.328-0.027,0.655-0.038,0.982-0.025c0.387,0.014,0.659,0.231,0.865,0.543
		c0.443,0.674,0.812,1.392,1.212,2.09c0.547,0.953,1.081,1.912,1.623,2.867C-331.83,331.82-331.818,331.889-331.721,331.914z"/>
	<path fill="#6C6E6F" d="M-310.471,330.961c0.873,0.91,1.729,1.803,2.635,2.745c-0.546,0-1.027,0.002-1.51-0.001
		c-0.098-0.001-0.147-0.09-0.207-0.152c-0.779-0.812-1.557-1.627-2.338-2.438c-0.086-0.09-0.109-0.176-0.064-0.285
		c0.003-0.008,0.006-0.016,0.01-0.025c0.1-0.283,0.127-0.638,0.317-0.832c0.188-0.189,0.554-0.057,0.84-0.09
		c0.317-0.037,0.634-0.087,0.927-0.222c0.453-0.209,0.651-0.562,0.629-1.095c-0.021-0.479-0.242-0.793-0.713-0.949
		c-0.793-0.264-1.611-0.189-2.427-0.165c-0.12,0.004-0.13,0.089-0.129,0.187c0.004,0.231,0.001,0.463,0.001,0.692
		c0,1.692-0.003,3.388,0.005,5.081c0.001,0.208-0.051,0.279-0.263,0.263c-0.237-0.019-0.479-0.019-0.717,0
		c-0.217,0.019-0.264-0.062-0.264-0.267c0.008-2.094,0.006-4.186,0.006-6.278c0-0.204,0.004-0.407-0.002-0.612
		c-0.002-0.113,0.021-0.182,0.157-0.181c1.214,0.009,2.429-0.104,3.636,0.086c0.325,0.052,0.64,0.144,0.934,0.296
		c0.756,0.391,0.982,1.071,1.01,1.857c0.04,1.234-0.479,1.917-1.688,2.219C-309.934,330.857-310.186,330.902-310.471,330.961z"/>
	<path fill="#6C6E6F" d="M-337.939,328.992c0,0.718,0.002,1.438,0,2.154c-0.004,1.508-1.014,2.554-2.526,2.627
		c-0.787,0.039-1.541-0.049-2.199-0.535c-0.62-0.457-0.945-1.086-0.955-1.844c-0.021-1.604-0.004-3.209-0.01-4.814
		c-0.001-0.18,0.055-0.229,0.227-0.221c0.266,0.013,0.533,0.016,0.798,0c0.198-0.014,0.231,0.07,0.23,0.246
		c-0.006,1.426-0.005,2.854-0.002,4.283c0,0.264-0.005,0.53,0.063,0.791c0.129,0.489,0.432,0.799,0.923,0.928
		c0.342,0.09,0.688,0.093,1.029,0.029c0.677-0.129,1.082-0.611,1.091-1.341c0.018-1.338,0.007-2.678,0.008-4.017
		c0-0.239,0.008-0.479-0.002-0.719c-0.006-0.146,0.037-0.205,0.192-0.201c0.311,0.011,0.621,0.014,0.931,0
		c0.169-0.008,0.207,0.053,0.206,0.211C-337.943,327.378-337.939,328.186-337.939,328.992z"/>
	<path fill="#6C6E6F" d="M-314.996,329.413c-0.13,0.34-0.251,0.634-0.354,0.935c-0.047,0.141-0.144,0.131-0.25,0.131
		c-0.746,0-1.49,0.008-2.234-0.004c-0.21-0.004-0.271,0.053-0.268,0.264c0.016,0.533,0.017,1.064,0,1.597
		c-0.008,0.218,0.067,0.263,0.271,0.261c0.869-0.011,1.738,0.008,2.606-0.011c0.268-0.006,0.341,0.078,0.312,0.328
		c-0.02,0.185-0.009,0.372-0.002,0.558c0.004,0.133-0.038,0.188-0.182,0.188c-1.401-0.001-2.803,0.001-4.203,0.009
		c-0.146,0-0.176-0.052-0.176-0.186c0.004-2.305,0.004-4.61,0-6.916c-0.002-0.162,0.062-0.188,0.201-0.188
		c1.385,0.004,2.769,0.005,4.15,0c0.169-0.001,0.216,0.06,0.209,0.216c-0.01,0.213-0.016,0.426,0.001,0.639
		c0.013,0.186-0.067,0.218-0.231,0.217c-0.896-0.008-1.791,0.001-2.687-0.01c-0.204-0.002-0.276,0.043-0.271,0.262
		c0.018,0.486,0.015,0.975,0,1.462c-0.004,0.194,0.045,0.257,0.248,0.254c0.844-0.013,1.686-0.005,2.527-0.005
		C-315.229,329.413-315.131,329.413-314.996,329.413z"/>
	<path fill="#6C6E6F" d="M-290.9,326.379c0.683,0,1.364,0.005,2.047-0.004c0.172-0.002,0.242,0.042,0.231,0.221
		c-0.012,0.203-0.015,0.409,0.001,0.612c0.014,0.185-0.049,0.242-0.236,0.239c-0.896-0.008-1.791,0.005-2.688-0.008
		c-0.227-0.004-0.285,0.066-0.277,0.283c0.016,0.461,0.016,0.922,0,1.383c-0.009,0.233,0.045,0.319,0.301,0.313
		c0.842-0.019,1.685,0,2.526-0.011c0.228-0.004,0.285,0.049,0.185,0.264c-0.117,0.256-0.149,0.6-0.342,0.76
		c-0.186,0.154-0.527,0.041-0.801,0.043c-0.541,0.006-1.082,0.008-1.623,0c-0.178-0.004-0.25,0.039-0.246,0.232
		c0.012,0.55,0.012,1.1,0.002,1.648c-0.005,0.19,0.061,0.238,0.241,0.236c0.896-0.008,1.792,0.002,2.688-0.008
		c0.199-0.002,0.295,0.039,0.27,0.26c-0.031,0.262,0.111,0.602-0.062,0.768c-0.157,0.15-0.49,0.039-0.746,0.041
		c-1.17,0.007-2.342,0.002-3.512,0.015c-0.197,0.002-0.252-0.047-0.25-0.249c0.008-2.262,0.008-4.521-0.002-6.784
		c0-0.218,0.068-0.264,0.271-0.26C-292.25,326.387-291.575,326.379-290.9,326.379z"/>
	<path fill="#6C6E6F" d="M-323.802,332.225c0.27-0.701,0.517-1.343,0.763-1.984c0.477-1.239,0.956-2.477,1.424-3.717
		c0.061-0.16,0.137-0.215,0.305-0.209c0.354,0.014,0.709,0.004,1.095,0.004c-0.246,0.647-0.483,1.273-0.722,1.9
		c-0.682,1.784-1.365,3.568-2.041,5.355c-0.068,0.184-0.149,0.283-0.356,0.251c-0.086-0.015-0.179-0.013-0.265,0
		c-0.647,0.084-1.017-0.25-1.238-0.812c-0.854-2.164-1.708-4.328-2.566-6.49c-0.066-0.164-0.05-0.215,0.139-0.209
		c0.361,0.017,0.789-0.104,1.068,0.049c0.27,0.15,0.301,0.611,0.432,0.937C-325.116,328.917-324.475,330.537-323.802,332.225z"/>
	<path fill="#6C6E6F" d="M-305.674,333.708c-0.426,0-0.854-0.013-1.277,0.005c-0.221,0.01-0.273-0.07-0.262-0.273
		c0.015-0.229,0.013-0.461,0-0.69c-0.01-0.167,0.05-0.21,0.212-0.208c0.745,0.008,1.489,0.002,2.233,0.004
		c0.195,0,0.391-0.012,0.582-0.052c0.58-0.122,0.795-0.761,0.403-1.212c-0.213-0.247-0.491-0.402-0.778-0.547
		c-0.435-0.219-0.873-0.426-1.306-0.651c-0.26-0.136-0.497-0.306-0.711-0.511c-0.593-0.564-0.716-1.25-0.468-1.998
		c0.247-0.743,0.824-1.119,1.577-1.198c0.864-0.092,1.735-0.019,2.604-0.038c0.129-0.003,0.168,0.051,0.164,0.174
		c-0.006,0.258-0.013,0.516,0.004,0.771c0.01,0.183-0.062,0.22-0.229,0.218c-0.701-0.008-1.401-0.005-2.103-0.002
		c-0.123,0-0.248,0.015-0.369,0.03c-0.24,0.033-0.418,0.158-0.494,0.39c-0.084,0.249-0.065,0.49,0.125,0.694
		c0.254,0.271,0.584,0.427,0.91,0.586c0.533,0.259,1.084,0.488,1.565,0.841c0.831,0.606,1.108,1.418,0.813,2.356
		c-0.26,0.824-0.971,1.297-1.978,1.311C-304.857,333.712-305.268,333.708-305.674,333.708z"/>
	<path fill="#6C6E6F" d="M-297.385,330.555c0-0.931-0.014-1.861,0.008-2.791c0.007-0.285-0.084-0.336-0.34-0.326
		c-0.479,0.021-0.957,0-1.436,0.01c-0.158,0.003-0.229-0.036-0.213-0.206c0.027-0.279-0.117-0.636,0.061-0.817
		c0.154-0.158,0.506-0.042,0.77-0.043c1.418-0.004,2.838,0.002,4.256-0.006c0.192-0.001,0.271,0.042,0.252,0.248
		c-0.019,0.193-0.021,0.391,0,0.584c0.022,0.214-0.068,0.247-0.257,0.242c-0.478-0.012-0.957,0.009-1.437-0.01
		c-0.23-0.01-0.295,0.051-0.295,0.289c0.012,1.889,0.002,3.776,0.012,5.664c0.001,0.225-0.061,0.291-0.279,0.275
		c-0.291-0.02-0.585-0.018-0.877,0c-0.195,0.012-0.23-0.062-0.229-0.24C-297.381,332.471-297.385,331.514-297.385,330.555z"/>
	<path fill="#6C6E6F" d="M-300.046,330.04c0,1.127-0.005,2.253,0.005,3.38c0.002,0.2-0.049,0.26-0.249,0.248
		c-0.31-0.018-0.621-0.01-0.933-0.002c-0.141,0.003-0.203-0.025-0.202-0.188c0.005-2.307,0.004-4.612,0.001-6.918
		c-0.001-0.14,0.045-0.188,0.184-0.184c0.301,0.008,0.604,0.018,0.904-0.002c0.227-0.016,0.3,0.041,0.297,0.286
		C-300.055,327.787-300.046,328.913-300.046,330.04z"/>
	<path fill="#6C6E6F" d="M-327.872,330.018c0,1.133-0.006,2.269,0.005,3.402c0.002,0.203-0.055,0.26-0.252,0.248
		c-0.292-0.018-0.585-0.018-0.877,0c-0.207,0.012-0.268-0.049-0.266-0.262c0.009-1.924,0.005-3.848,0.005-5.77
		c0-0.355,0.006-0.709-0.003-1.064c-0.004-0.15,0.048-0.2,0.197-0.196c0.318,0.011,0.639,0.015,0.957-0.001
		c0.188-0.008,0.237,0.055,0.236,0.238C-327.876,327.748-327.872,328.882-327.872,330.018z"/>
	<path fill="#6C6E6F" d="M-290.754,325.995c0.382-0.515,0.729-0.979,1.072-1.442c0.037-0.051,0.09-0.052,0.144-0.052
		c0.386-0.001,0.771-0.001,1.228-0.001c-0.551,0.514-1.031,1.004-1.562,1.434C-290.086,326.107-290.413,325.967-290.754,325.995z"/>
	<path fill="none" d="M-326.084,340.184c-0.033,0.051-0.053,0.071-0.062,0.096c-0.668,1.686-1.332,3.373-2.006,5.057
		c0.674-1.684,1.34-3.371,2.008-5.057C-326.137,340.255-326.117,340.234-326.084,340.184z"/>
	<path fill="none" d="M-323.919,345.521c0.028,0,0.06,0.008,0.091,0.005C-323.859,345.529-323.89,345.521-323.919,345.521
		L-323.919,345.521z"/>
	<path fill="none" d="M-328.152,345.336c-0.066,0.162-0.013,0.188,0.073,0.189C-328.164,345.523-328.217,345.498-328.152,345.336z"
		/>
	<path fill="#6B6D6F" d="M-317.99,352.32c-2.209-4.791-4.414-9.584-6.615-14.377c-0.072-0.156-0.164-0.195-0.324-0.193
		c-0.816,0.008-1.633,0.01-2.448-0.001c-0.197-0.003-0.288,0.054-0.365,0.243c-1.692,4.175-3.393,8.347-5.093,12.518
		c-0.279,0.686-0.558,1.374-0.84,2.067c0.83,0,1.634-0.002,2.438,0.002c0.175,0.001,0.26-0.073,0.324-0.238
		c0.581-1.491,1.178-2.978,1.756-4.472c0.082-0.21,0.188-0.268,0.404-0.268c1.896,0.01,3.796,0.01,5.693,0
		c0.209,0,0.309,0.062,0.392,0.252c0.655,1.5,1.323,2.996,1.981,4.496c0.068,0.158,0.148,0.225,0.332,0.221
		c0.736-0.012,1.474-0.014,2.209,0C-317.913,352.574-317.9,352.514-317.99,352.32z M-323.828,345.526
		c-0.031,0.003-0.062-0.005-0.091-0.005c-1.355,0.002-2.711,0.002-4.067,0.002c-0.032,0-0.064,0.002-0.093,0.002
		c-0.086-0.002-0.14-0.027-0.073-0.189c0.674-1.684,1.338-3.371,2.006-5.057c0.01-0.024,0.029-0.045,0.062-0.096
		c0.79,1.777,1.57,3.537,2.35,5.289C-323.765,345.512-323.797,345.523-323.828,345.526z"/>
	<path fill="#FCFDFF" d="M-323.734,345.473c-0.031,0.039-0.062,0.051-0.094,0.054C-323.797,345.523-323.765,345.512-323.734,345.473
		z"/>
	<path fill="#FCFDFF" d="M-327.986,345.523c1.356,0,2.712,0,4.067-0.002l0,0C-325.273,345.523-326.631,345.523-327.986,345.523z"/>
	<path fill="#FCFDFF" d="M-327.986,345.523c-0.032,0-0.064,0.002-0.093,0.002C-328.051,345.525-328.019,345.523-327.986,345.523z"/>
</g>
</svg>
